<?xml version="1.0" encoding="utf-8" ?>
<svg xmlns="http://www.w3.org/2000/svg" xmlns:xlink="http://www.w3.org/1999/xlink" width="14" height="16">
	<defs>
		<clipPath id="clip_0">
			<rect x="-837" y="-502" width="1280" height="1780" clip-rule="evenodd"/>
		</clipPath>
	</defs>
	<g clip-path="url(#clip_0)">
		<path fill="rgb(18,17,12)" stroke="none" d="M7 16C10.865 16 14 13.0898 14 9.49959C14 8.40252 13.68 7.38446 13.162 6.4784C15.02 4.12326 13.194 0 13.194 0C11.246 0.722045 9.934 2.47715 9.35 3.40221C8.611 3.1562 7.828 2.99919 7 2.99919C6.172 2.99919 5.389 3.1562 4.65 3.40221C4.065 2.47715 2.753 0.722045 0.806 0C0.806 0 -1.021 4.12326 0.837 6.4784C0.32 7.38446 0 8.40252 0 9.49959C0 13.0898 3.134 16 7 16ZM1.375 1.39709C1.047 2.51816 0.704 4.34927 1.437 5.59235C2.023 4.8743 2.764 4.28327 3.615 3.84324L3.699 3.77324C3.252 3.10319 2.453 2.08013 1.375 1.39709ZM10.301 3.77324C10.748 3.10319 11.547 2.08013 12.624 1.39709C12.952 2.51816 13.295 4.34927 12.562 5.59235C11.977 4.8743 11.236 4.28327 10.385 3.84324L10.301 3.77324ZM7 3.99925C3.685 3.99925 1 6.4614 1 9.49959C1 12.5368 3.685 14.9999 7 14.9999C10.313 14.9999 13 12.5368 13 9.49959C13 6.4614 10.313 3.99925 7 3.99925ZM3 10.4997C3 11.8807 4.791 13.0008 7 13.0008C9.209 13.0008 11 11.8807 11 10.4997C11 9.11957 9.209 7.9995 7 7.9995C4.791 7.9995 3 9.11957 3 10.4997ZM7 8.99956C5.343 8.99956 4 9.6716 4 10.4997C4 11.3277 5.343 11.9998 7 11.9998C8.656 11.9998 10 11.3277 10 10.4997C10 9.6716 8.656 8.99956 7 8.99956ZM6 10.9997L5 10.9997L5 9.99963L6 9.99963L6 10.9997ZM9 10.9997L8 10.9997L8 9.99963L9 9.99963L9 10.9997Z" fill-rule="evenodd"/>
	</g>

</svg>