<?xml version="1.0" encoding="utf-8" ?>
<svg xmlns="http://www.w3.org/2000/svg" xmlns:xlink="http://www.w3.org/1999/xlink" width="16" height="16">
	<defs>
		<clipPath id="clip_0">
			<rect x="-682" y="-867" width="1280" height="1780" clip-rule="evenodd"/>
		</clipPath>
	</defs>
	<g clip-path="url(#clip_0)">
		<path fill="rgb(155,155,155)" stroke="none" d="M11.9998 11L12.0038 11C14.2105 11 16 8.538 16 5.5C16 2.462 14.2105 0 12.0038 0L4.01026 0C1.80246 0 0.0130106 2.238 0.0130106 5L0.0130106 5.002L0 5.002L0 7.002L0.0140114 7.002L0.0140114 16L9.00532 16L9.00532 11L11.9998 11ZM9.71489 1L6.38619 1L6.38619 1.001L4.01927 1.002C4.01626 1.002 4.01326 1 4.01026 1C2.35391 1 1.01182 2.791 1.01182 5C1.01182 5.005 1.01382 5.01 1.01382 5.015L1.01382 15L8.00651 15L8.00651 6L8.04253 6C8.03253 5.833 8.00651 5.671 8.00651 5.5C8.00651 3.636 8.68406 1.995 9.71489 1ZM9.03934 5.002C9.20648 2.754 10.4615 1 12.0038 1C13.6591 1 15.0012 3.015 15.0012 5.5C15.0012 7.985 13.6591 10.001 12.0038 10.001L11.0089 10.001L11.0089 10.002L9.00732 10.002L9.00732 10.001L9.00231 10.001L9.00231 9.001L9.00732 9.001L9.00732 5.521C9.00732 5.514 9.00532 5.507 9.00532 5.5C9.00532 5.492 9.00732 5.483 9.00732 5.475L9.00732 5.002L9.03934 5.002ZM12.5032 8C11.6915 8 11.035 6.923 11.0089 5.58L11.0089 5.42C11.035 4.077 11.6915 3 12.5032 3C13.3308 3 14.0014 4.119 14.0014 5.5C14.0014 6.881 13.3308 8 12.5032 8ZM12.5032 4C12.2269 4 12.0038 4.672 12.0038 5.5C12.0038 6.328 12.2269 7 12.5032 7C12.7784 7 13.0026 6.328 13.0026 5.5C13.0026 4.672 12.7784 4 12.5032 4Z" fill-rule="evenodd"/>
	</g>

</svg>